HIERARCHY
ROOT Hips
{
     OFFSET 1.88212 96.90440 -13.34250
     CHANNELS 6 Xposition Yposition Zposition Zrotation Xrotation Yrotation
     JOINT Spine
     {
          OFFSET 0.00000 11.89050 0.00000
          CHANNELS 3 Zrotation Xrotation Yrotation
          JOINT Spine1
          {
               OFFSET -0.00000 25.65740 0.12766
               CHANNELS 3 Zrotation Xrotation Yrotation
               JOINT HEad
               {
                    OFFSET 0.00000 8.73416 0.01134
                    CHANNELS 3 Zrotation Xrotation Yrotation
                    End Site
                    {
                         OFFSET -0.29000 12.77420 2.51395
                    }
               }
               JOINT LeftShoulder1
               {
                    OFFSET 8.99000 -0.36225 -0.22000
                    CHANNELS 3 Zrotation Xrotation Yrotation
                    JOINT LeftArm
                    {
                         OFFSET 10.28270 -0.00338 0.32212
                         CHANNELS 3 Zrotation Xrotation Yrotation
                         JOINT LeftForeArm
                         {
                              OFFSET 32.76690 0.09914 -1.42434
                              CHANNELS 3 Zrotation Xrotation Yrotation
                              JOINT LeftHand
                              {
                                   OFFSET 27.56430 0.08536 1.02216
                                   CHANNELS 3 Zrotation Xrotation Yrotation
                                   End Site
                                   {
                                        OFFSET 16.74430 -0.60000 1.50291
                                   }
                              }
                         }
                    }
               }
               JOINT RightShoulder
               {
                    OFFSET -8.99000 -0.36225 -0.22000
                    CHANNELS 3 Zrotation Xrotation Yrotation
                    JOINT RightArm
                    {
                         OFFSET -10.28270 -0.00338 0.32212
                         CHANNELS 3 Zrotation Xrotation Yrotation
                         JOINT RightForeArm
                         {
                              OFFSET -32.89710 0.09914 -1.42434
                              CHANNELS 3 Zrotation Xrotation Yrotation
                              JOINT RightHand
                              {
                                   OFFSET -27.49210 0.08536 1.02216
                                   CHANNELS 3 Zrotation Xrotation Yrotation
                                   End Site
                                   {
                                        OFFSET -16.63120 -0.60000 1.50291
                                   }
                              }
                         }
                    }
               }
          }
     }
     JOINT LeftUpLeg
     {
          OFFSET 8.94580 -8.66707 0.10165
          CHANNELS 3 Zrotation Xrotation Yrotation
          JOINT LeftLeg
          {
               OFFSET 0.00000 -44.42270 1.37270
               CHANNELS 3 Zrotation Xrotation Yrotation
               JOINT LeftFoot
               {
                    OFFSET -0.25355 -42.09240 -1.46059
                    CHANNELS 3 Zrotation Xrotation Yrotation
                    JOINT LeftToes
                    {
                         OFFSET -0.04000 -4.41509 8.49910
                         CHANNELS 3 Zrotation Xrotation Yrotation
                         End Site
                         {
                              OFFSET 0.08000 -0.04745 9.77979
                         }
                    }
               }
          }
     }
     JOINT RightUpLeg
     {
          OFFSET -8.94580 -8.66707 0.10165
          CHANNELS 3 Zrotation Xrotation Yrotation
          JOINT RightLeg
          {
               OFFSET 0.00000 -44.42270 1.37270
               CHANNELS 3 Zrotation Xrotation Yrotation
               JOINT RightFoot
               {
                    OFFSET 0.25355 -42.09240 -1.46059
                    CHANNELS 3 Zrotation Xrotation Yrotation
                    JOINT RightToes
                    {
                         OFFSET 0.04000 -4.41509 8.49910
                         CHANNELS 3 Zrotation Xrotation Yrotation
                         End Site
                         {
                              OFFSET -0.08000 -0.13745 9.77979
                         }
                    }
               }
          }
     }
}
MOTION
Frames: 8
Frame Time: 0.01667
95.17072 79.83225 -106.03505 -11.17734 -0.67133 -36.60185 10.70293 12.07763 0.08414 -0.02298 0.03972 0.04619 1.87492 14.74431 3.47782 -15.92396 14.92823 15.36423 -106.20597 -56.65866 -87.66075 -41.96409 56.56995 -101.54781 6.74467 8.34741 2.70415 2.50452 22.02989 22.47081 73.00908 -28.25761 76.18381 28.69677 49.40623 109.62717 -9.56958 13.52628 -3.04690 9.70020 -33.10944 25.86271 364.97092 57.39123 -359.74405 20.57261 -0.37310 0.14455 -28.07703 -16.01043 -12.41022 -25.81529 -17.50487 5.96998 -301.50964 58.10797 325.42624 31.43737 0.08466 0.26563 7.50789 9.76987 -11.55676 
98.10602 83.61091 -104.53675 -10.83603 -0.36288 -39.20051 10.87033 12.04858 -0.15362 -0.08415 0.11628 0.06513 -0.10334 18.81149 3.56177 -17.21376 13.76453 16.95299 -104.34045 -56.81417 -85.69643 -40.62513 57.20707 -102.96848 6.44223 8.69451 1.58098 1.47644 21.48063 23.97185 71.94909 -28.54336 74.22132 29.07801 49.02872 110.00851 -8.14738 12.12624 -3.04811 5.65643 -29.95036 21.99442 369.99182 49.39737 -366.89743 15.79691 -0.31678 0.21104 -14.04725 -2.81441 -16.44048 -21.96933 -13.60977 2.09168 -297.10596 60.96888 323.93018 17.47962 -0.23324 -0.65012 7.72909 1.69260 -7.60418 
100.79613 86.86476 -103.45526 -8.37324 -0.50006 -42.47757 7.88278 12.24492 1.41166 -0.07822 0.10648 0.05124 -1.12154 21.09275 3.53784 -17.01288 11.77685 17.20420 -102.79393 -57.06302 -83.83710 -39.18431 57.78777 -104.36123 7.24037 8.48107 1.85575 1.96049 19.78279 24.40379 70.60706 -28.58737 72.08831 29.30142 48.72949 110.73093 -8.35577 12.72694 -2.14502 0.65010 -28.22825 18.49154 373.41226 41.61940 -371.31683 10.77573 -0.34538 0.22350 -17.93215 -4.96625 -4.92524 -19.10098 -10.12836 -1.30410 -300.19186 62.79073 327.58780 13.28500 -0.00512 -0.18589 -0.01088 -17.65437 -0.35238 
103.06197 89.50233 -102.84013 -4.29336 -1.00395 -46.35829 3.35249 11.21502 4.00489 0.00003 0.01202 0.02507 -2.17197 22.93003 3.69635 -16.52549 10.08949 17.01255 -101.50332 -57.35995 -82.12914 -37.82269 58.25846 -105.62550 7.15152 8.80130 1.00763 2.73757 18.24590 24.44583 69.16718 -28.49091 69.95839 29.26454 48.49778 111.64778 -7.44158 11.98162 -1.83020 -4.96630 -27.94979 14.96360 376.21603 34.48721 -373.96835 5.42781 -0.38006 0.20573 -2.77324 -2.33290 -12.24926 -17.08345 -7.10285 -4.15792 -312.47934 61.69331 337.61224 6.26287 -0.18915 -0.04580 -2.58158 -29.19754 -2.03495 
105.16659 91.42882 -102.64829 -0.87237 -1.56676 -49.79176 -0.53854 10.08927 6.25642 0.00072 0.00939 0.02119 -3.05733 24.18884 4.00674 -9.64765 8.20113 5.51940 -108.15327 -68.15086 -82.60583 -36.82742 58.75570 -107.14973 7.49262 8.56289 1.03092 9.00874 12.21923 13.17389 64.09806 -16.85354 66.84911 29.15070 48.17696 112.07067 -7.64600 12.45271 -0.88203 -9.82992 -27.70427 10.22270 378.79129 28.42684 -375.61731 -0.02715 -0.41186 0.16353 -4.68732 5.94315 -13.78508 -14.57767 -3.17753 -7.22854 -330.37512 55.92131 350.63434 -1.15118 -0.33010 0.19894 0.14166 -38.30035 -8.58375 
107.00684 92.75906 -102.77127 2.21768 -2.20076 -53.11884 -4.14568 8.78942 8.36093 0.00138 0.00760 0.00761 -4.05408 24.98026 4.74307 -4.97394 5.97020 -1.67655 -114.43178 -75.41650 -84.67756 -36.06695 59.24968 -108.90314 7.71559 8.51190 0.97141 13.02280 7.26725 6.36126 60.80529 -9.10013 65.16969 29.15793 47.75546 112.19744 -7.64770 12.61446 -0.04937 -14.40729 -27.41460 5.04451 381.04279 22.71940 -376.56973 -5.01688 -0.38800 0.12703 -6.16974 11.15597 -11.00014 -12.17279 0.60085 -10.40340 -343.00510 47.91249 359.61639 -7.74485 -0.26551 0.18707 6.04965 -42.50999 -15.21140 
108.96198 93.43554 -103.08788 4.93784 -2.85406 -56.35293 -7.42629 7.39420 10.29538 0.00074 0.00204 0.00229 -5.09051 25.26640 5.85109 -1.55343 4.12315 -5.94336 -117.34122 -79.03366 -85.24522 -34.79932 58.68083 -110.42188 7.81101 8.36257 0.89552 15.74140 3.67018 2.10362 58.66526 -4.05881 64.35274 29.22839 47.34891 112.20658 -7.62699 12.65982 0.57242 -18.44505 -27.10505 -0.40737 383.44620 17.47303 -377.23987 -9.79118 -0.37886 0.10464 -9.07418 10.39010 -8.99521 -9.83663 4.19567 -13.62247 -352.24753 38.20706 365.60098 -12.07984 -0.20755 0.13811 4.68661 -45.81587 -20.52380 
110.80760 93.75467 -103.47450 7.31787 -3.49343 -59.49373 -10.38869 5.92215 12.05251 -0.00078 -0.00149 -0.00068 -6.07410 25.04935 7.28750 1.10172 2.84479 -8.13697 -114.60441 -79.75114 -81.53670 -33.13800 57.16079 -111.56339 7.80908 8.11080 0.89497 17.69789 1.35330 -0.62133 57.99448 -1.98210 63.67227 29.15270 46.92791 111.98417 -6.83040 11.52565 1.59645 -21.66857 -26.79087 -5.89489 386.09055 12.86776 -377.73859 -14.47741 -0.37371 0.07524 -11.01132 4.33315 -6.69366 -7.57303 7.64085 -16.85349 -358.53329 27.46653 369.69199 -14.79408 -0.13990 0.09426 -0.69940 -48.02662 -23.20029 
